<svg xmlns="http://www.w3.org/2000/svg"  viewBox="0 0 24 24" width="24px" height="24px" fill-rule="evenodd" clip-rule="evenodd"><path d="M 12.0001,10.000217 V 9.0002156 h 1.000001 V 8.0002142 h 1 V 7.0002128 h 1.000001 V 6.0002114 H 8.0000972 V 8.0002142 H 7.0000965 v 2.0000028 z"/><rect width="1" height="1" x="6" y="10"/><rect width="1" height="1" x="8" y="10"/><rect width="1" height="1" x="10" y="10"/><rect width="1" height="1" x="9" y="11"/><rect width="1" height="1" x="7" y="11"/><rect width="1" height="1" x="11" y="11"/><rect width="1" height="1" x="13" y="11"/><path d="m 2.9996144,14.000024 v 1.000001 h 6.0000044 v -1.015001 z"/><path d="m 17.999626,9.0007833 h 2.000001 v 0.9999997 h -1.000001 v 1.000001 h -1 v 1 h -1.000001 v 1 h -1.000001 v 1 h -1.000001 v 1.000001 h -1 v 1 h -1.000001 v 1 h -1.000001 v 1 H 10.99962 v 1 H 9.9996196 v 1.000001 H 8.9996188 v 1 H 6.9996174 v -1 h 1.0000007 v -1.000001 h 1.0000007 v -1 h 1.0000008 v -1 H 10.99962 v -1 h 1.000001 v -1 h 1.000001 v -1.000001 l 1.000001,-0.015 v -0.985 h 1 v -1 h 1.000001 v -1 h 1.000001 v -1.000001 h 1.000001 z"/><path fill-opacity=".3" d="M 6.9996041,4.0002086 V 6.0002114 H 5.9996034 V 8.0002142 H 4.9996027 V 10.000217 H 3.999602 V 12.00022 H 2.9996013 v 2.000003 h 6.0000042 v 2.000002 H 7.9996048 v 2.000003 H 6.9996041 v 2.000003 H 7.9996048 V 19.00023 h 1.0000007 v -1.000002 h 1.0000007 v -1.000001 h 1.0000008 v -1.000002 h 1.000001 v -1.000001 h 1 v -1.000001 h 1.000001 V 13.000221 H 14.99961 V 12.00022 h 1 v -1.000002 h 1.000001 v -1.000001 h 1.000001 V 9.0002156 H 14.99961 V 8.0002142 h 1 V 7.0002128 h 1.000001 V 6.0002114 h 1.000001 V 5.00021 h 1 V 4.0002086 Z M 11.999608,11.000218 V 9.0002156 h 1 V 8.0002142 h 1.000001 V 7.0002128 H 14.99961 V 6.0002114 H 7.9996048 V 8.0002142 H 6.9996041 V 10.000217 H 5.9996034 v 2.000003 h 5.0000036 v 2.000003 h 1.000001 v -1.000002 h 1 V 12.00022 h 1.000001 v -1.000002 z"/><path d="m 2.9996144,14.000024 v 1.000001 h 6.0000044 v -1.015001 z"/><path d="M 16.999625,9.0007833 V 8.000783 h 1.000001 V 7.0007828 h 1 V 6.0007826 h 1.000001 V 5.0007824 h 1.000001 V 4.0007822 h -2.000002 v 1.0000002 h -1 V 6.0007826 H 16.999625 V 7.0007828 H 15.999624 V 8.000783 h -1.000001 v 1.0000003 z"/></svg>