<svg width="40" height="40" viewBox="0 0 40 40" fill="none" xmlns="http://www.w3.org/2000/svg">
<g clip-path="url(#clip0_7_2)">
<path d="M63.266 -77.509L49.386 -101.549C47.426 -104.939 43.776 -107.049 39.856 -107.049H12.096C8.176 -107.049 4.526 -104.939 2.566 -101.549L-11.314 -77.509C-13.274 -74.119 -13.274 -69.899 -11.314 -66.509L2.566 -42.469C4.526 -39.069 8.176 -36.969 12.096 -36.969H39.856C43.776 -36.969 47.426 -39.069 49.386 -42.469L63.266 -66.509C65.226 -69.899 65.226 -74.119 63.266 -77.509ZM40.856 -58.259C37.276 -54.289 32.366 -51.949 27.026 -51.669C26.666 -51.649 26.316 -51.639 25.956 -51.639C21.006 -51.639 16.296 -53.439 12.586 -56.779C4.386 -64.159 3.716 -76.839 11.106 -85.049C11.676 -85.679 12.286 -86.279 12.936 -86.829C14.186 -87.909 16.076 -87.769 17.166 -86.509C18.246 -85.259 18.096 -83.359 16.836 -82.279C16.396 -81.899 15.966 -81.479 15.566 -81.029C10.396 -75.289 10.856 -66.409 16.606 -61.239C19.386 -58.729 22.966 -57.459 26.716 -57.659C30.456 -57.859 33.896 -59.499 36.396 -62.279C41.566 -68.019 41.096 -76.899 35.356 -82.069C34.126 -83.179 34.026 -85.079 35.136 -86.309C36.246 -87.539 38.136 -87.639 39.376 -86.529C47.576 -79.149 48.236 -66.469 40.856 -58.259ZM22.976 -73.039V-89.999C22.976 -91.659 24.326 -92.999 25.976 -92.999C27.636 -92.999 28.976 -91.659 28.976 -89.999V-73.039C28.976 -71.389 27.636 -70.039 25.976 -70.039C25.156 -70.039 24.396 -70.379 23.856 -70.919C23.316 -71.459 22.976 -72.219 22.976 -73.039ZM38.096 16.701L31.896 6.20099C31.336 5.25099 30.546 4.47099 29.626 3.93099L29.466 3.65099H29.126C28.256 3.23099 27.286 3.00099 26.296 3.00099H13.666C12.666 3.00099 11.706 3.23099 10.836 3.65099H10.396L10.176 4.021C9.326 4.561 8.596 5.30099 8.066 6.20099L1.866 16.701C1.296 17.671 0.996003 18.741 0.966003 19.821L0.866004 20.001L0.966003 20.181C0.996003 21.261 1.296 22.331 1.866 23.301L8.066 33.801C8.596 34.701 9.326 35.441 10.186 35.981L10.396 36.341H10.816C11.696 36.771 12.656 37.001 13.666 37.001H26.296C27.296 37.001 28.266 36.771 29.146 36.341H29.466L29.616 36.081C30.546 35.531 31.336 34.761 31.896 33.801L38.096 23.301C38.696 22.281 38.996 21.141 38.996 20.001C38.996 18.861 38.696 17.721 38.096 16.701ZM15.656 25.071C18.316 27.471 22.436 27.251 24.826 24.591C27.226 21.931 27.006 17.811 24.346 15.421C23.726 14.861 23.676 13.911 24.236 13.301C24.786 12.681 25.736 12.631 26.356 13.191C30.246 16.691 30.556 22.711 27.056 26.601C25.186 28.681 22.596 29.741 19.996 29.741C17.726 29.741 15.456 28.931 13.646 27.301C9.756 23.801 9.436 17.781 12.946 13.891C13.216 13.591 13.506 13.301 13.806 13.041C14.436 12.501 15.386 12.581 15.926 13.201C16.466 13.831 16.396 14.781 15.766 15.321C15.556 15.501 15.356 15.691 15.166 15.901C12.776 18.561 12.996 22.681 15.656 25.071ZM18.496 18.501V11.501C18.496 10.671 19.176 10.001 19.996 10.001C20.826 10.001 21.496 10.671 21.496 11.501V18.501C21.496 19.331 20.826 20.001 19.996 20.001C19.176 20.001 18.496 19.331 18.496 18.501ZM33.126 85.461C33.056 84.691 32.826 83.941 32.426 83.251L28.096 75.751C27.696 75.051 27.156 74.471 26.516 74.021L26.216 73.501H25.616C24.906 73.171 24.136 73.001 23.336 73.001H14.676C13.876 73.001 13.106 73.171 12.396 73.501H11.796L11.496 74.021C10.856 74.471 10.316 75.051 9.916 75.751L5.586 83.251C5.186 83.941 4.956 84.691 4.886 85.461L4.586 85.981L4.876 86.491C4.946 87.271 5.176 88.051 5.586 88.751L9.916 96.251C10.326 96.961 10.886 97.561 11.536 98.011L11.796 98.461H12.306C13.036 98.811 13.846 99.001 14.676 99.001H23.336C24.166 99.001 24.976 98.811 25.706 98.461H26.216L26.476 98.011C27.126 97.561 27.686 96.961 28.096 96.251L32.426 88.751C32.836 88.051 33.066 87.271 33.136 86.491L33.426 85.981L33.126 85.461ZM16.036 89.511C17.856 91.141 20.666 91.001 22.296 89.181C23.936 87.361 23.786 84.561 21.966 82.921C21.506 82.501 21.476 81.791 21.886 81.331C22.306 80.871 23.016 80.831 23.476 81.251C26.216 83.711 26.436 87.951 23.976 90.691C22.776 92.011 21.136 92.801 19.356 92.891C19.236 92.901 19.116 92.901 18.996 92.901C17.346 92.901 15.766 92.301 14.536 91.181C13.206 89.991 12.426 88.351 12.326 86.571C12.236 84.781 12.846 83.071 14.036 81.741C14.226 81.531 14.426 81.331 14.646 81.151C15.116 80.741 15.826 80.801 16.236 81.271C16.636 81.741 16.586 82.451 16.116 82.851C15.966 82.981 15.836 83.111 15.706 83.251C14.916 84.131 14.516 85.261 14.576 86.451C14.636 87.631 15.156 88.721 16.036 89.511ZM17.876 85.851V80.121C17.876 79.501 18.386 79.001 19.006 79.001C19.626 79.001 20.126 79.501 20.126 80.121V85.851C20.126 86.471 19.626 86.981 19.006 86.981C18.386 86.981 17.876 86.471 17.876 85.851ZM25.636 129.631C25.586 129.141 25.426 128.661 25.166 128.221L23.116 124.731C22.856 124.301 22.516 123.931 22.106 123.651L21.926 123.351H21.586C21.126 123.121 20.616 123.001 20.096 123.001H15.876C15.356 123.001 14.846 123.121 14.386 123.351H14.126L13.996 123.571C13.536 123.851 13.146 124.251 12.866 124.731L10.806 128.221C10.516 128.711 10.356 129.241 10.326 129.791L10.216 129.981L10.326 130.171C10.346 130.731 10.506 131.281 10.806 131.781L12.866 135.271C13.156 135.761 13.556 136.171 14.036 136.461L14.126 136.611H14.306C14.786 136.871 15.326 137.001 15.876 137.001H20.096C20.656 137.001 21.196 136.861 21.676 136.611H21.926L22.066 136.381C22.486 136.101 22.846 135.721 23.116 135.271L25.166 131.781C25.436 131.331 25.596 130.831 25.636 130.321L25.836 129.981L25.636 129.631ZM16.366 131.891C16.846 132.331 17.446 132.551 18.106 132.511C18.746 132.481 19.346 132.191 19.776 131.711C20.206 131.241 20.426 130.621 20.396 129.971C20.356 129.331 20.076 128.741 19.596 128.301C19.346 128.081 19.326 127.701 19.556 127.461C19.776 127.211 20.156 127.191 20.396 127.411C21.116 128.061 21.536 128.941 21.586 129.911C21.646 130.871 21.316 131.801 20.666 132.521C20.026 133.241 19.136 133.661 18.166 133.711H17.976C17.086 133.711 16.226 133.391 15.566 132.791C14.846 132.141 14.416 131.251 14.366 130.291C14.316 129.321 14.646 128.401 15.296 127.681C15.396 127.571 15.506 127.461 15.616 127.361C15.866 127.141 16.246 127.171 16.466 127.421C16.686 127.671 16.656 128.051 16.406 128.261C16.326 128.331 16.256 128.401 16.186 128.481C15.756 128.961 15.536 129.581 15.566 130.221C15.606 130.871 15.886 131.461 16.366 131.891ZM17.376 130.001V127.051C17.376 126.721 17.646 126.451 17.976 126.451C18.316 126.451 18.576 126.721 18.576 127.051V130.001C18.576 130.331 18.316 130.601 17.976 130.601C17.646 130.601 17.376 130.331 17.376 130.001Z" fill="black"/>
<path d="M38.096 16.701L31.896 6.201C31.336 5.251 30.546 4.471 29.626 3.931C29.466 3.821 29.296 3.731 29.126 3.651C28.256 3.231 27.286 3.001 26.296 3.001H13.666C12.666 3.001 11.706 3.231 10.836 3.651C10.606 3.761 10.386 3.881 10.176 4.021C9.326 4.561 8.596 5.301 8.066 6.201L1.866 16.701C1.296 17.671 0.996003 18.741 0.966003 19.821V20.181C0.996003 21.261 1.296 22.331 1.866 23.301L8.066 33.801C8.596 34.701 9.326 35.441 10.186 35.981C10.386 36.121 10.596 36.231 10.816 36.341C11.696 36.771 12.656 37.001 13.666 37.001H26.296C27.296 37.001 28.266 36.771 29.146 36.341C29.306 36.261 29.466 36.181 29.616 36.081C30.546 35.531 31.336 34.761 31.896 33.801L38.096 23.301C38.696 22.281 38.996 21.141 38.996 20.001C38.996 18.861 38.696 17.721 38.096 16.701ZM26.296 36.001H13.666C11.726 36.001 9.916 34.961 8.926 33.301L2.726 22.801C1.706 21.071 1.706 18.931 2.726 17.201L8.926 6.701C9.916 5.041 11.726 4.001 13.666 4.001H26.296C28.236 4.001 30.046 5.041 31.036 6.701L37.236 17.201C38.246 18.931 38.246 21.071 37.236 22.801L31.036 33.301C30.046 34.961 28.236 36.001 26.296 36.001Z" fill="black"/>
</g>
<defs>
<clipPath id="clip0_7_2">
<rect width="40" height="40" fill="white"/>
</clipPath>
</defs>
</svg>
