<svg width="44" height="36" viewBox="0 0 44 36" fill="none" xmlns="http://www.w3.org/2000/svg">
<path fill-rule="evenodd" clip-rule="evenodd" d="M9.139 0C6.628 0 4.771 2.257 4.854 4.705C4.934 7.056 4.83 10.102 4.083 12.585C3.335 15.076 2.068 16.651 0 16.853V19.147C2.069 19.349 3.335 20.924 4.083 23.415C4.83 25.898 4.934 28.944 4.854 31.295C4.771 33.743 6.628 36 9.139 36H34.864C37.375 36 39.232 33.743 39.15 31.295C39.07 28.944 39.173 25.898 39.92 23.415C40.669 20.924 41.932 19.349 44 19.147V16.853C41.932 16.651 40.669 15.076 39.92 12.585C39.174 10.102 39.07 7.056 39.15 4.705C39.233 2.257 37.376 0 34.865 0H9.139ZM24.79 17.422V17.451C27.389 17.752 29.133 19.596 29.133 22.05C29.133 23.675 28.528 25.024 27.384 25.951C26.242 26.877 24.579 27.366 22.576 27.366H14.867V8.632H22.536C24.21 8.632 25.63 9.075 26.641 9.912C27.656 10.752 28.192 11.933 28.192 13.328C28.192 15.301 26.701 17.092 24.79 17.422ZM17.919 16.568H21.199C23.741 16.568 25.141 15.56 25.142 13.729C25.142 12.023 23.963 11.084 21.822 11.084H17.919V16.568ZM21.795 18.864H17.919V24.917H21.967C24.615 24.917 26.015 23.864 26.015 21.871C26.015 19.876 24.595 18.864 21.795 18.864Z" fill="black"/>
</svg>
