<svg xmlns="http://www.w3.org/2000/svg"  viewBox="0 0 50 50" width="50px" height="50px"><path d="M9.999,33.001	c0-5.191,0.805-10.851,2.651-15.013c0.123,0.009,0.24,0.013,0.349,0.013c0.839,0,1.579-0.084,2.26-0.199	c0.637-0.107,1.235-0.241,1.851-0.368c0.297-0.061,0.604-0.121,0.928-0.176c0.104,1.624,0.431,3.532,1.224,5.228	c1.095,2.348,3.268,4.515,6.737,4.515c2.595,0,5.223-1.272,7.26-3.195c0.019,0.027,0.039,0.053,0.06,0.079	c0.361,0.477,0.804,1.076,1.24,1.596c0.431,0.513,1.007,1.141,1.72,1.632c0.013,0.011,0.028,0.02,0.043,0.029	c-1.156,4.205-3.655,8.707-6.453,12.463c-3.749,5.033-8.525,9.396-11.869,9.396C11.366,49.001,9.999,38.434,9.999,33.001z M36.93,25.081c-0.533-0.479-1.036-1.111-1.5-1.721c-0.821-1.076-1.469-1.955-2.143-2.605c-1.751,2.424-4.588,4.247-7.288,4.247	c-2.523,0-4.072-1.533-4.925-3.36c-0.831-1.783-1.075-3.948-1.075-5.64c0-0.299,0.023-0.631,0.069-0.98	c-1.383,0.073-2.428,0.263-3.363,0.455c-1.184,0.243-2.321,0.525-3.707,0.525c-0.247,0-0.527-0.037-0.804-0.145	c-0.467-0.183-0.901-0.559-1.095-1.165c-0.071-0.221-0.101-0.453-0.101-0.689c0-1.861,1.153-3.868,2.884-5.364	c1.76-1.523,4.237-2.636,7.116-2.636c2.791,0,5.763,1.625,7.307,4.164c1.524-3.492,3.995-6.409,7.056-8.935l1.273,1.543	c-2.897,2.389-5.145,5.08-6.512,8.229c2.985,0.033,5.879,0.863,8.069,2.355c2.248,1.532,3.807,3.812,3.807,6.644	c0,0.905-0.187,2.069-0.496,3.091c-0.276,0.917-0.752,2.092-1.569,2.623c-0.253,0.164-0.569,0.287-0.935,0.287	C38.15,26.001,37.458,25.555,36.93,25.081z"/></svg>