<svg width="40" height="41" viewBox="0 0 40 41" fill="none" xmlns="http://www.w3.org/2000/svg">
<path fill-rule="evenodd" clip-rule="evenodd" d="M37.091 5.36199C39.091 11.307 40.051 16.374 39.982 20.635C39.9829 20.6925 39.9869 20.7491 39.9909 20.8056C39.9954 20.8701 40 20.9345 40 21C40 32.046 31.046 41 20 41C8.95399 41 0 32.046 0 21C0 9.95399 8.95399 0.999997 20 0.999997C24.974 0.999997 29.514 2.827 33.013 5.83099C33.149 5.60199 33.279 5.36999 33.393 5.13299L35.523 0.699997L37.091 5.36199ZM21.531 34C26.734 34.091 32.262 33.86 35.385 29.558C40.07 23.106 37.456 12.667 35.284 5.99999C33.344 10.167 28.576 13.363 24.454 14.375C22.7636 14.7918 21.158 14.8762 19.587 14.9588C17.5696 15.0649 15.6093 15.168 13.6 15.968C5.43701 19.214 5.57301 29.268 10.063 31.527L10.33 31.672C10.33 31.672 16.926 30.32 20.578 28.927C25.908 26.888 31.757 21.874 33.687 16.038C32.644 22.104 27.634 27.935 22.566 30.6C20.9415 31.462 19.3375 31.9418 17.3471 32.5371C16.0403 32.9279 14.567 33.3686 12.812 34H14.75H21.531ZM10.505 36C10.955 36 11.386 35.795 11.668 35.445C12.186 34.805 12.086 33.855 11.446 33.336C11.182 33.118 10.846 33 10.505 33C9.68701 33 9.01001 33.677 9.01001 34.5C9.01001 35.323 9.68201 36 10.505 36Z" fill="black"/>
</svg>
